<svg version="1.2" xmlns="http://www.w3.org/2000/svg" viewBox="0 0 271 271" width="512" height="512">
	<title>IMG_4278</title>
	<style>
		.s0 { fill: #000000 } 
		.s1 { fill: #ffffff } 
		.s2 { fill: #5c2a2d } 
	</style>
	<g id="CALCULADOLAR">
		<path id="Path 0" class="s0" d="m32 17.66c-2.48 0.87-6.3 2.81-8.5 4.31-2.2 1.5-5.31 4.26-6.91 6.13-1.6 1.87-4.08 5.88-5.5 8.9l-2.59 5.5v188c4.3 9 7.78 13.7 10.75 16.55 3.11 2.99 7.49 5.94 10.75 7.25l5.5 2.2h199c8.53-4.12 13.2-7.49 15.88-10.16 2.69-2.66 5.68-6.41 6.65-8.34 0.97-1.93 2.29-6.2 2.92-9.5 0.84-4.35 1.08-30.78 0.86-96l-0.31-90c-3.95-8.52-6.93-13.02-9.17-15.5-2.25-2.48-6.73-5.85-9.96-7.5l-5.87-3c-188.11-0.4-199.49-0.25-203.5 1.16z"/>
		<path id="Path 1" class="s1" d="m87.5 15.75c25.85 0.15 68.38 0.15 94.5 0 26.13-0.15 4.97-0.27-47-0.27-51.97 0-73.35 0.12-47.5 0.27z"/>
		<path id="Path 2" class="s2" d="m36.01 128.75c0.01 0.41-1.45 1.32-3.25 2.02-1.79 0.69-4.16 2.49-5.26 4-1.92 2.63-2 4.31-2 44.33 0 35.5 0.22 41.86 1.5 43.39 0.83 1 3.19 2.86 5.25 4.16l3.75 2.35h81c6.2-3.87 8.67-6.35 9.5-8 1.26-2.51 1.5-9.33 1.5-42 0-37-0.1-39.21-2-43-1.42-2.85-3.01-4.36-5.51-5.25-1.94-0.69-3.51-1.59-3.5-2 0-0.41-18.21-0.75-40.49-0.75-22.27 0-40.49 0.34-40.49 0.75zm117.32 3.52c-1.67 1.25-4.24 3.84-5.71 5.75l-2.68 3.48c0.05 63.6 0.43 77.43 1.16 79.25 0.6 1.51 2.51 3.98 4.25 5.48l3.15 2.74 87 0.07c4.91-4.29 6.83-6.78 7.42-8.29 0.71-1.8 1.08-16.04 1.08-41.25 0-38.18-0.02-38.53-2.25-42.14-1.24-2.01-3.94-4.48-6-5.5-3.47-1.72-6.8-1.86-44.07-1.86h-40.32z"/>
		<path id="Path 3" class="s1" d="m22.95 36.25c-1.14 1.76-1.52 7.35-1.77 25.75-0.24 17.6 0.01 24.46 1 27.33 0.72 2.1 2.45 4.54 3.82 5.41 2.25 1.42 13.13 1.55 107.5 1.32 77.22-0.18 105.48-0.56 106.82-1.41 1-0.63 2.48-2.73 3.28-4.65 1.12-2.71 1.44-8.53 1.42-25.75-0.01-17.29-0.35-23.14-1.52-26.25l-1.5-4h-217.6z"/>
		<path id="Path 4" class="s2" d="m31.5 50.79c-1.56 1.56-1.76 3.46-1.6 14.75 0.16 10.66 0.5 13.28 1.9 14.74 1.08 1.13 3.17 1.79 5.7 1.79 2.5 0 4.67-0.67 5.79-1.79 0.98-0.98 1.66-2.81 1.5-4.07-0.16-1.26-0.74-2.29-1.29-2.29-0.55 0-1.11 0.92-1.25 2.04-0.21 1.71-0.97 2.04-4.75 2.04h-4.5c-0.39-9.69-0.39-15.31-0.25-18.75l0.25-6.25c8.43 0 9.03 0.29 9.25 2.25 0.14 1.24 0.7 2.16 1.25 2.04 0.55-0.12 1.13-1.24 1.29-2.5 0.16-1.26-0.52-3.09-1.5-4.07-1.15-1.15-3.26-1.77-5.89-1.75-2.57 0.02-4.77 0.7-5.9 1.82zm16.99 0c-1.62 1.6-1.77 3.26-1.4 15.25 0.34 11.12 0.67 13.46 1.91 13.46 1.15 0 1.56-1.47 1.75-6.25l0.25-6.25h8c0.39 9.69 0.95 12.5 1.5 12.5 0.61 0 1.11-5.52 1.28-14 0.24-12.46 0.08-14.14-1.5-15.27-0.98-0.69-3.63-1.26-5.88-1.25-2.59 0.01-4.77 0.68-5.91 1.81zm33.51-0.59c-1.1 0.94-1.36 4.29-1.2 15.5 0.18 13.19 0.35 14.38 2.2 15.3 1.1 0.55 3.46 1.01 5.25 1.02 1.79 0.01 4-0.56 4.93-1.25 0.92-0.7 1.82-2.62 2-4.27 0.23-2.14-0.11-3-1.18-3-0.82 0-1.61 1.01-1.75 2.25-0.21 1.92-0.84 2.25-4.25 2.25h-4c-0.39-9.69-0.39-15.31-0.25-18.75l0.25-6.25c7.36 0 8.04 0.35 8.25 2.17 0.14 1.2 0.81 2.32 1.5 2.5 0.81 0.21 1.26-0.82 1.27-2.92 0.01-1.79-0.56-3.82-1.25-4.52-0.7-0.69-3.32-1.26-5.82-1.25-2.5 0.01-5.18 0.56-5.95 1.22zm50.49 0.59c-1.61 1.6-1.77 3.26-1.4 15.17 0.29 9.57 0.77 13.47 1.66 13.71 0.88 0.23 1.32-1.5 1.5-5.92l0.25-6.25 8.5-0.5c0.39 9.69 0.95 12.5 1.5 12.5 0.61 0 1.1-5.42 1.25-13.75 0.2-11.13-0.04-14.04-1.25-15.25-0.87-0.87-3.32-1.5-5.85-1.5-2.85 0-4.98 0.62-6.16 1.79zm17.59-0.54c-0.76 0.82-1.13 6.01-1.08 15.25 0.06 12 0.31 14.19 1.78 15.31 1.03 0.79 2.92 1.08 4.72 0.73 1.65-0.32 4.35-1.93 6-3.58 2.92-2.91 3-3.27 3-12.56v-9.55c-6.21-5.67-8.5-6.85-10.39-6.85-1.59 0-3.4 0.56-4.03 1.25zm18.42 0.54c-1.56 1.56-1.76 3.46-1.6 14.75 0.16 10.66 0.5 13.28 1.9 14.74 1.08 1.13 3.17 1.79 5.7 1.79 2.53 0 4.62-0.66 5.7-1.79 1.42-1.49 1.71-3.97 1.75-15.03 0.04-10.49-0.26-13.56-1.45-14.75-0.87-0.87-3.32-1.5-5.85-1.5-2.85 0-4.97 0.62-6.15 1.79zm33.5-0.59c-1.1 0.94-1.36 4.29-1.2 15.5 0.15 10.87 0.5 14.22 1.45 13.97 0.79-0.21 1.34-2.58 1.5-6.5l0.25-6.17h8c0.41 10.09 0.96 12.46 1.75 12.67 0.96 0.25 1.25-3.02 1.27-13.92 0.01-10.19-0.35-14.61-1.25-15.52-0.7-0.69-3.32-1.26-5.82-1.25-2.5 0.01-5.18 0.56-5.95 1.22zm16.99 1.1c-0.86 0.92-1.19 5.38-1.11 15 0.09 10.42 0.42 13.62 1.37 13.37 0.77-0.2 1.35-2.48 1.5-6l0.25-5.67c6.83 0 7.07 0.24 8.5 5 0.82 2.75 1.95 5.22 2.5 5.5 0.55 0.28 1.34 0.26 1.75-0.04 0.41-0.29-0.07-3.11-1.07-6.25-1.29-4.07-1.5-6-0.73-6.71 0.6-0.55 1.08-3.7 1.08-7 0-3.51-0.52-6.53-1.26-7.27-0.7-0.7-3.57-1.26-6.41-1.25-2.9 0.01-5.67 0.59-6.37 1.32zm-153.87 14.12c-0.11 13.64 0.01 14.64 1.88 15.58 1.1 0.55 3.46 0.99 5.25 0.98 1.79 0 3.93-0.4 4.75-0.88 0.83-0.48 1.16-1.38 0.75-1.99-0.41-0.61-2.77-1.11-5.25-1.11h-4.5c-0.15-9.69-0.26-15.61-0.34-19.41-0.1-4.1-0.62-7.08-1.29-7.33-0.81-0.31-1.17 3.75-1.25 14.16zm33.38-13.59c-0.37 0.48-0.61 6.67-0.54 13.77 0.11 10.66 0.43 13.21 1.84 14.68 1.08 1.13 3.17 1.79 5.7 1.79 2.53 0 4.63-0.66 5.72-1.79 1.48-1.53 1.69-3.68 1.5-15.28-0.17-10.61-0.51-13.5-1.58-13.5-1.09 0-1.34 2.69-1.25 13.25l0.11 13.25h-9c-0.12-9.69-0.08-15.49 0.01-19.15 0.08-3.66-0.3-6.93-0.84-7.27-0.55-0.34-1.3-0.22-1.67 0.25zm16.99-0.02c-0.34 0.44-0.56 6.63-0.49 13.75 0.09 10.69 0.41 13.25 1.81 14.72 1.07 1.13 3.17 1.79 5.69 1.8 2.2 0 4.56-0.57 5.24-1.29 0.69-0.71 0.91-1.64 0.5-2.07-0.41-0.43-2.88-0.76-5.49-0.75l-4.75 0.03c0-21.37-0.4-27-0.95-27-0.52 0-1.23 0.36-1.56 0.81zm69.55-0.14c-0.11 0.45-0.16 6.9-0.13 14.33 0.06 11.7 0.3 13.67 1.83 14.77 0.97 0.69 3.33 1.25 5.26 1.23 1.93-0.02 4.18-0.42 5-0.9 0.82-0.48 1.16-1.38 0.75-1.99-0.41-0.61-2.77-1.11-5.25-1.11h-4.5c-0.15-9.69-0.26-15.61-0.34-19.41-0.1-4.1-0.62-7.08-1.29-7.33-0.63-0.24-1.22-0.05-1.33 0.41z"/>
		<path id="Path 5" class="s1" d="m193 147c0 3.89-0.12 4.03-4.25 4.94-2.34 0.52-5.76 2.01-7.6 3.31-1.84 1.31-4.27 3.92-5.39 5.81-1.63 2.73-1.89 4.26-1.28 7.44 0.45 2.39 1.92 5.11 3.64 6.75 1.61 1.53 5.54 3.52 8.9 4.5l6.02 1.75c-0.04 13.02-0.35 14.5-1.54 14.5-0.82 0-2.85-0.68-4.5-1.5-1.73-0.87-3.42-2.77-4-4.5-0.92-2.77-1.37-3-5.75-3.02l-4.75-0.02c1.19 6.24 2.73 8.78 5.22 11.14 2.66 2.53 5.48 4.01 9.55 5 5.75 1.4 5.77 1.41 5.75 5.15-0.02 3.09 0.33 3.75 1.98 3.75 1.59 0 2.05-0.75 2.25-3.64 0.24-3.53 0.43-3.69 5.75-5.04 3.03-0.78 6.96-2.4 8.75-3.61 1.78-1.22 3.92-3.67 4.75-5.46 0.82-1.79 1.5-4.49 1.5-6-0.01-1.51-0.91-4.21-2-6-1.1-1.79-3.01-3.79-4.25-4.44-1.24-0.66-4.95-1.94-8.25-2.85l-6-1.66-0.5-14.3c4.26 0.9 6.12 1.69 6.88 2.33 0.76 0.64 1.77 2.18 2.25 3.42 0.72 1.87 1.63 2.25 5.37 2.25 3.83 0 4.5-0.3 4.5-2 0-1.1-0.68-3.35-1.5-5-0.82-1.65-2.96-3.87-4.75-4.92-1.79-1.06-5.39-2.41-8-3-4.7-1.07-4.75-1.13-4.75-5.08 0-3.33-0.33-4-2-4-1.67 0-2 0.67-2 4zm-162 29.5v25.5c26.92-0.08 31.67-0.49 35.48-1.79 3.52-1.21 5.66-2.73 7.34-5.21 1.93-2.87 2.27-4.4 1.88-8.5-0.42-4.31-1.01-5.44-4.34-8.2-2.86-2.36-3.47-3.33-2.36-3.72 0.83-0.29 2.35-2 3.38-3.8 1.37-2.39 1.71-4.3 1.25-7.03-0.35-2.06-1.75-5.1-3.13-6.75-1.63-1.95-4.33-3.53-7.75-4.51-3.51-1.01-9.64-1.51-18.5-1.5l-13.25 0.01zm64.5-16.49c-2.2 0.5-5.46 2.27-7.25 3.95-2.77 2.59-3.25 3.74-3.28 7.79-0.02 3.67 0.49 5.23 2.25 6.88 1.26 1.16 3.29 2.63 4.53 3.25 1.24 0.61 5.74 1.81 10 2.65 4.26 0.84 8.35 2.08 9.07 2.75 0.73 0.67 1.18 2.34 1 3.72-0.24 1.92-1.25 2.81-4.32 3.81-2.2 0.72-5.46 1.06-7.25 0.75-1.79-0.31-4.37-1.69-5.75-3.06-1.83-1.83-3.57-2.5-6.5-2.5-3.13 0-4.01 0.38-4.03 1.75-0.02 0.96 0.88 2.99 2 4.5 1.11 1.51 3.49 3.52 5.28 4.45 2.24 1.17 5.74 1.72 11.25 1.75 6.07 0.04 8.96-0.43 12-1.95 2.43-1.21 4.79-3.45 6-5.68 1.66-3.06 1.83-4.31 1-7.46-0.69-2.61-2.09-4.51-4.5-6.09-1.92-1.27-5.97-2.75-9-3.29-3.03-0.54-7.3-1.54-9.5-2.23-2.69-0.84-4.1-1.91-4.31-3.25-0.17-1.1 0.51-2.79 1.5-3.76 1.03-1 3.54-1.84 5.81-1.94 2.27-0.09 5.19 0.56 6.75 1.52 1.51 0.92 2.75 2.36 2.75 3.18 0 1.13 1.22 1.5 5 1.5 4.69 0 4.96-0.14 4.42-2.25-0.32-1.24-1.38-3.38-2.36-4.75-0.97-1.38-3.07-3.29-4.66-4.25-1.6-0.97-5.37-1.96-8.4-2.2-3.03-0.25-7.3-0.04-9.5 0.46z"/>
		<path id="Path 6" class="s2" d="m40 166v7c12.01 0.03 16.96-0.42 18.75-0.98 1.79-0.56 3.7-1.92 4.25-3.02 0.55-1.1 1-2.9 1-4 0-1.1-1.24-2.92-2.75-4.03-2.31-1.71-4.23-2.03-12-2l-9.25 0.03zm148.5-5.85c-1.1 0.61-2.57 1.83-3.27 2.72-0.69 0.9-1.25 2.31-1.23 3.13 0.02 0.82 0.36 2.03 0.77 2.69 0.4 0.65 2.42 1.89 4.48 2.75l3.75 1.56c0-11.95-0.37-13.99-1.25-13.97-0.69 0.02-2.15 0.52-3.25 1.12zm-148.5 26.85v7c18.68 0.01 22.09-0.38 23.75-1.49 1.62-1.09 2.25-2.49 2.25-5.01 0-2.17-0.76-4.26-2-5.5-1.76-1.76-3.33-2-13-2h-11zm157 2v7c4.97 0 6.99-0.92 8.55-2.5 1.35-1.38 2.44-3.29 2.43-4.25 0-0.96-0.34-2.28-0.75-2.94-0.4-0.65-2.42-1.89-4.48-2.75-2.06-0.86-4.2-1.56-4.75-1.56-0.57 0-1 3-1 7z"/>
		<path id="Path 7" class="s1" d="m51 58.5v5.5h8v-11h-8zm83.2-0.25l0.3 5.25 8.5 0.5v-11h-9.11zm17.64 1c-0.18 3.44-0.22 9.06-0.08 12.5 0.23 5.93 0.37 6.25 2.75 6.25 1.46 0 3.52-1.14 4.96-2.75 2.13-2.37 2.47-3.72 2.47-9.75 0-6.03-0.34-7.38-2.47-9.75-1.4-1.56-3.51-2.75-4.88-2.75-2.27 0-2.44 0.4-2.75 6.25zm18.17 6.25v12.5h9c0.38-9.69 0.42-15.31 0.32-18.75l-0.18-6.25h-9.14zm34-7v5.5h8v-11h-8zm17 0v5.5h8v-11h-8z"/>
	</g>
</svg>